HIERARCHY
ROOT reference
{
  OFFSET 0 0 0
  CHANNELS 6 Xposition Yposition Zposition Zrotation Xrotation Yrotation
  JOINT Hips
  {
    OFFSET -3.16224 94.7983 86.5786
    CHANNELS 6 Xposition Yposition Zposition Zrotation Xrotation Yrotation
    JOINT Spine
    {
      OFFSET 0 8.22665 0
      CHANNELS 6 Xposition Yposition Zposition Zrotation Xrotation Yrotation
      JOINT Spine1
      {
        OFFSET 0 24.451 0
        CHANNELS 6 Xposition Yposition Zposition Zrotation Xrotation Yrotation
        JOINT Neck
        {
          OFFSET 0 24.3506 2.21369
          CHANNELS 6 Xposition Yposition Zposition Zrotation Xrotation Yrotation
          JOINT Head
          {
            OFFSET 0 14.0455 -2.0065
            CHANNELS 6 Xposition Yposition Zposition Zrotation Xrotation Yrotation
            End Site
            {
              OFFSET 0 25.0812 0
            }
          }
        }
        JOINT LeftShoulder
        {
          OFFSET 4.0594 22.2558 -0.272799
          CHANNELS 6 Xposition Yposition Zposition Zrotation Xrotation Yrotation
          JOINT LeftArm
          {
            OFFSET 12.0298 0 0
            CHANNELS 6 Xposition Yposition Zposition Zrotation Xrotation Yrotation
            JOINT LeftForeArm
            {
              OFFSET 31.2689 0 0
              CHANNELS 6 Xposition Yposition Zposition Zrotation Xrotation Yrotation
              JOINT LeftHand
              {
                OFFSET 28.0275 0 0
                CHANNELS 6 Xposition Yposition Zposition Zrotation Xrotation Yrotation
                End Site
                {
                  OFFSET 15.0487 0 0
                }
              }
            }
          }
        }
        JOINT RightShoulder
        {
          OFFSET -3.96464 22.2558 -0.272799
          CHANNELS 6 Xposition Yposition Zposition Zrotation Xrotation Yrotation
          JOINT RightArm
          {
            OFFSET -12.0298 0 0
            CHANNELS 6 Xposition Yposition Zposition Zrotation Xrotation Yrotation
            JOINT RightForeArm
            {
              OFFSET -31.2689 0 0
              CHANNELS 6 Xposition Yposition Zposition Zrotation Xrotation Yrotation
              JOINT RightHand
              {
                OFFSET -28.0275 0 0
                CHANNELS 6 Xposition Yposition Zposition Zrotation Xrotation Yrotation
                End Site
                {
                  OFFSET -15.0487 0 0
                }
              }
            }
          }
        }
      }
    }
    JOINT LeftUpLeg
    {
      OFFSET 10.0325 0 0
      CHANNELS 6 Xposition Yposition Zposition Zrotation Xrotation Yrotation
      JOINT LeftLeg
      {
        OFFSET 0 -38.4033 0
        CHANNELS 6 Xposition Yposition Zposition Zrotation Xrotation Yrotation
        JOINT LeftFoot
        {
          OFFSET 0 -44.1642 0
          CHANNELS 6 Xposition Yposition Zposition Zrotation Xrotation Yrotation
          JOINT LeftToeBase
          {
            OFFSET 0 -6.52112 15.0487
            CHANNELS 6 Xposition Yposition Zposition Zrotation Xrotation Yrotation
            End Site
            {
              OFFSET 0 0 4.013
            }
          }
        }
      }
    }
    JOINT RightUpLeg
    {
      OFFSET -10.0325 0 0
      CHANNELS 6 Xposition Yposition Zposition Zrotation Xrotation Yrotation
      JOINT RightLeg
      {
        OFFSET 0 -38.4033 0
        CHANNELS 6 Xposition Yposition Zposition Zrotation Xrotation Yrotation
        JOINT RightFoot
        {
          OFFSET 0 -44.1642 0
          CHANNELS 6 Xposition Yposition Zposition Zrotation Xrotation Yrotation
          JOINT RightToeBase
          {
            OFFSET 0 -6.52112 15.0487
            CHANNELS 6 Xposition Yposition Zposition Zrotation Xrotation Yrotation
            End Site
            {
              OFFSET 0 0 4.013
            }
          }
        }
      }
    }
  }
}
MOTION
Frames:	7
Frame Time:	0.004
0 0 0 0 0 -0 -12.7816 85.9879 -195.581 -5.84797 7.32296 10.8531 0 8.22665 2.84217e-014 5.02134 2.8599 -4.97299 3.55271e-015 24.451 0 9.43039 27.7725 -7.18397 0 24.3506 2.21369 11.3561 30.848 12.4185 0 14.0455 -2.0065 -28.4877 29.3221 18.3006 4.0594 22.2558 -0.272799 11.4803 4.2303 -22.5265 12.0298 -1.42109e-014 -2.84217e-014 -44.233 39.7042 -36.5512 31.2689 2.84217e-014 7.10543e-015 2.20871 7.32975 -0.813282 28.0275 -2.84217e-014 7.10543e-015 7.61816 7.46235 1.77187 -3.96464 22.2558 -0.272799 2.02675 15.7917 15.2465 -12.0298 1.42109e-014 -2.84217e-014 19.712 39.0149 43.163 -31.2689 0 0 -3.10636 -2.77507 3.92409 -28.0275 0 0 4.54766 -2.76956 -2.54028 10.0325 -2.84217e-014 0 3.42168 6.1667 -0.273623 7.10543e-015 -38.4033 0 -3.43389 7.17037 -7.85517 1.77636e-015 -44.1642 0 2.47453 -7.9312 12.6326 7.10543e-015 -6.52112 15.0487 -3.97569e-016 -1.59028e-015 -0 -10.0325 -1.42109e-014 0 1.77861 -28.0656 3.74857 -3.55271e-015 -38.4033 2.84217e-014 1.51565 18.1925 -4.38309 3.55271e-015 -44.1642 -2.84217e-014 7.54242 -7.95635 -5.38431 1.77636e-015 -6.52112 15.0487 -8.94531e-016 0 -7.95139e-016 
0 0 0 0 0 -0 -12.7713 85.9229 -195.259 -5.77596 7.34639 10.9421 3.55271e-015 8.22665 0 5.03782 2.80982 -4.99669 1.77636e-015 24.451 2.84217e-014 9.46614 27.7648 -7.21768 1.77636e-015 24.3506 2.21369 11.5464 30.8183 12.3009 -7.10543e-015 14.0455 -2.0065 -28.4269 29.3314 18.195 4.0594 22.2558 -0.272799 11.5405 4.1606 -22.6688 12.0298 1.42109e-014 2.84217e-014 -44.2409 39.501 -36.5376 31.2689 2.84217e-014 -7.10543e-015 2.39745 7.14833 -0.90661 28.0275 0 7.10543e-015 7.54522 7.29288 1.92068 -3.96464 22.2558 -0.272799 2.12523 15.8053 15.2364 -12.0298 1.42109e-014 0 19.6717 38.5881 43.1214 -31.2689 0 -1.42109e-014 -3.09148 -3.14787 3.82578 -28.0275 0 -1.42109e-014 4.38093 -3.1408 -2.51436 10.0325 0 0 3.40243 6.25029 -0.200058 3.55271e-015 -38.4033 -2.84217e-014 -3.42155 7.3406 -7.90679 1.77636e-015 -44.1642 -2.84217e-014 2.34763 -7.99377 12.5106 0 -6.52112 15.0487 3.97569e-016 0 -1.59028e-015 -10.0325 -7.10543e-015 0 1.65331 -28.0453 3.42962 -7.10543e-015 -38.4033 0 1.56073 18.009 -4.65301 0 -44.1642 -2.84217e-014 7.64667 -7.90256 -5.25144 3.55271e-015 -6.52112 15.0487 -4.96962e-016 1.59028e-015 -1.59028e-015 
0 0 0 0 0 -0 -12.7656 85.8514 -194.929 -5.69386 7.33302 11.0237 0 8.22665 0 5.01094 2.77689 -5.01617 0 24.451 -2.84217e-014 9.55975 27.7809 -7.26399 -1.77636e-015 24.3506 2.21369 11.6673 30.733 12.2375 1.42109e-014 14.0455 -2.0065 -28.2869 29.4316 18.1447 4.0594 22.2558 -0.272799 11.5838 4.11048 -22.8114 12.0298 0 0 -44.2483 39.2802 -36.5329 31.2689 0 0 2.57229 6.86173 -0.985531 28.0275 -2.84217e-014 -7.10543e-015 7.98646 7.01978 1.96273 -3.96464 22.2558 -0.272799 2.18268 15.9178 15.2675 -12.0298 -1.42109e-014 0 19.6412 38.063 43.0638 -31.2689 0 0 -3.12078 -3.44022 3.73937 -28.0275 2.84217e-014 0 4.47246 -3.43331 -2.43178 10.0325 7.10543e-015 2.84217e-014 3.38988 6.41939 -0.303419 0 -38.4033 0 -3.4362 7.43935 -7.74907 0 -44.1642 0 2.19157 -8.07943 12.3447 7.10543e-015 -6.52112 15.0487 1.32417e-031 -4.77083e-015 1.59028e-015 -10.0325 7.10543e-015 0 1.54065 -27.9757 3.18724 -3.55271e-015 -38.4033 0 1.61275 17.8981 -4.76124 7.10543e-015 -44.1642 -2.84217e-014 7.72284 -7.96364 -5.24735 3.55271e-015 -6.52112 15.0487 7.95139e-016 0 -0 
0 0 0 0 0 -0 -12.7654 85.779 -194.59 -5.63873 7.33335 11.1022 0 8.22665 0 5.05212 2.74041 -5.05205 1.77636e-015 24.451 0 9.57925 27.7479 -7.30241 0 24.3506 2.21369 11.5528 30.8978 12.2526 -7.10543e-015 14.0455 -2.0065 -27.8248 29.1092 18.0106 4.0594 22.2558 -0.272799 11.5797 4.09425 -22.9333 12.0298 1.42109e-014 0 -44.2525 38.9731 -36.4697 31.2689 0 -1.42109e-014 2.69052 6.59413 -1.10527 28.0275 0 7.10543e-015 8.2864 6.77233 2.11729 -3.96464 22.2558 -0.272799 2.21745 15.7274 15.3743 -12.0298 0 -2.84217e-014 19.9883 37.7341 42.7633 -31.2689 0 1.42109e-014 -3.24837 -3.65053 3.68567 -28.0275 0 -1.42109e-014 4.90083 -3.64888 -2.40354 10.0325 -7.10543e-015 0 3.40763 6.54576 -0.255883 -7.10543e-015 -38.4033 -2.84217e-014 -3.43215 7.59895 -7.78071 -1.77636e-015 -44.1642 0 2.03613 -8.17201 12.219 0 -6.52112 15.0487 1.19271e-015 -1.59028e-015 -0 -10.0325 0 5.68434e-014 1.47175 -27.9185 2.93933 0 -38.4033 -2.84217e-014 1.63605 17.7806 -4.91934 0 -44.1642 0 7.87289 -7.92525 -5.18482 0 -6.52112 15.0487 0 0 -1.59028e-015 
0 0 0 0 0 -0 -12.7515 85.6854 -194.221 -5.48222 7.22347 11.1919 -3.55271e-015 8.22665 0 4.97616 2.77496 -5.08778 -1.77636e-015 24.451 0 9.67693 27.8053 -7.36789 -1.77636e-015 24.3506 2.21369 11.6783 30.8073 12.2064 7.10543e-015 14.0455 -2.0065 -27.7218 29.1933 17.9788 4.0594 22.2558 -0.272799 11.5929 4.02476 -23.0675 12.0298 1.42109e-014 0 -44.3837 38.5613 -36.3676 31.2689 0 0 2.78719 6.44511 -1.21452 28.0275 2.84217e-014 0 8.4376 6.63052 2.12832 -3.96464 22.2558 -0.272799 2.25794 15.6942 15.3974 -12.0298 1.42109e-014 0 20.139 37.262 42.6227 -31.2689 -2.84217e-014 1.42109e-014 -3.25263 -3.95906 3.61391 -28.0275 0 0 4.52318 -3.95847 -2.58343 10.0325 -7.10543e-015 0 3.35053 6.85918 -0.304385 -3.55271e-015 -38.4033 0 -3.44677 7.68569 -7.76765 0 -44.1642 -2.84217e-014 1.88558 -8.26364 12.1175 7.10543e-015 -6.52112 15.0487 -7.95139e-016 0 3.18055e-015 -10.0325 -7.10543e-015 0 1.27765 -27.7229 2.75434 3.55271e-015 -38.4033 0 1.75596 17.7164 -5.16279 3.55271e-015 -44.1642 -2.84217e-014 7.99181 -8.03012 -5.12483 -3.55271e-015 -6.52112 15.0487 5.96354e-016 0 -0 
0 0 0 0 0 -0 -12.7442 85.6078 -193.871 -5.37532 7.20478 11.2764 0 8.22665 0 4.94406 2.72591 -5.10791 1.77636e-015 24.451 0 9.74084 27.8666 -7.4124 3.55271e-015 24.3506 2.21369 11.7622 30.7162 12.1321 3.55271e-015 14.0455 -2.0065 -27.5178 29.1676 17.8668 4.0594 22.2558 -0.272799 11.6699 3.9121 -23.1545 12.0298 0 0 -44.4634 38.3248 -36.3528 31.2689 0 0 2.97994 6.1662 -1.34447 28.0275 0 -7.10543e-015 8.63367 6.36909 2.23931 -3.96464 22.2558 -0.272799 2.26515 15.5856 15.4016 -12.0298 1.42109e-014 -2.84217e-014 20.2059 37.0121 42.5761 -31.2689 0 -1.42109e-014 -3.37438 -4.15295 3.50273 -28.0275 0 0 4.67977 -4.14623 -2.36122 10.0325 0 -2.84217e-014 3.30539 7.01729 -0.291709 3.55271e-015 -38.4033 0 -3.41046 7.8668 -7.85515 0 -44.1642 0 1.70357 -8.36838 12.0706 -7.10543e-015 -6.52112 15.0487 3.97569e-016 -1.59028e-015 -1.59028e-015 -10.0325 7.10543e-015 0 1.16789 -27.6415 2.36106 3.55271e-015 -38.4033 2.84217e-014 1.72766 17.7098 -5.17495 0 -44.1642 0 8.18278 -7.96553 -5.02976 -1.77636e-015 -6.52112 15.0487 -1.78906e-015 3.18055e-015 -7.95139e-016 
0 0 0 0 0 -0 -12.7378 85.5286 -193.545 -5.27035 7.24314 11.3121 3.55271e-015 8.22665 -2.84217e-014 4.90636 2.68537 -5.09273 -1.77636e-015 24.451 0 9.79155 27.8455 -7.4106 1.77636e-015 24.3506 2.21369 11.907 30.5781 12.0851 -7.10543e-015 14.0455 -2.0065 -27.4139 29.3283 17.8514 4.0594 22.2558 -0.272799 11.6993 3.86532 -23.2689 12.0298 0 0 -44.4634 38.0662 -36.3677 31.2689 0 0 3.1537 5.91843 -1.45926 28.0275 0 0 8.5149 6.12474 2.24581 -3.96464 22.2558 -0.272799 2.33962 15.5252 15.4209 -12.0298 -1.42109e-014 -2.84217e-014 20.4919 36.4518 42.3148 -31.2689 0 -1.42109e-014 -3.36148 -4.29959 3.5017 -28.0275 0 0 4.16298 -4.28984 -2.55867 10.0325 0 -2.84217e-014 3.23946 7.07088 -0.221376 0 -38.4033 0 -3.36088 8.10906 -7.9366 1.77636e-015 -44.1642 0 1.54577 -8.47059 11.9853 -7.10543e-015 -6.52112 15.0487 7.95139e-016 1.59028e-015 -0 -10.0325 -1.42109e-014 0 1.06275 -27.6705 2.30801 3.55271e-015 -38.4033 0 1.81814 17.8077 -5.40506 0 -44.1642 2.84217e-014 8.14935 -7.89057 -5.01072 3.55271e-015 -6.52112 15.0487 1.2921e-015 -1.59028e-015 -7.95139e-016 
